<svg width="16" height="17" viewBox="0 0 16 17" fill="none" xmlns="http://www.w3.org/2000/svg">
<path d="M12.6666 6.50004C12.6666 7.46671 12.3799 8.35338 11.8866 9.09338C11.1666 10.16 10.0266 10.9134 8.69992 11.1067C8.47325 11.1467 8.23992 11.1667 7.99992 11.1667C7.75992 11.1667 7.52658 11.1467 7.29992 11.1067C5.97325 10.9134 4.83325 10.16 4.11325 9.09338C3.61992 8.35338 3.33325 7.46671 3.33325 6.50004C3.33325 3.92004 5.41992 1.83337 7.99992 1.83337C10.5799 1.83337 12.6666 3.92004 12.6666 6.50004Z" stroke="#1A1A1A" stroke-width="1.25" stroke-linecap="round" stroke-linejoin="round"/>
<path d="M14.1666 12.8133L13.0666 13.0733C12.82 13.1333 12.6266 13.32 12.5733 13.5667L12.34 14.5467C12.2133 15.08 11.5333 15.24 11.18 14.82L7.99997 11.1666L4.81997 14.8266C4.46664 15.2466 3.78664 15.0866 3.65997 14.5533L3.42664 13.5733C3.36664 13.3266 3.1733 13.1333 2.9333 13.08L1.8333 12.82C1.32664 12.7 1.14664 12.0666 1.5133 11.7L4.1133 9.09998C4.8333 10.1666 5.9733 10.92 7.29997 11.1133C7.52664 11.1533 7.75997 11.1733 7.99997 11.1733C8.23997 11.1733 8.47331 11.1533 8.69997 11.1133C10.0266 10.92 11.1666 10.1666 11.8866 9.09998L14.4866 11.7C14.8533 12.06 14.6733 12.6933 14.1666 12.8133Z" stroke="#1A1A1A" stroke-width="1.25" stroke-linecap="round" stroke-linejoin="round"/>
<path d="M8.38657 4.48663L8.7799 5.27329C8.83323 5.37995 8.97323 5.48663 9.0999 5.50663L9.81323 5.62662C10.2666 5.69995 10.3732 6.03329 10.0466 6.35996L9.49323 6.91328C9.3999 7.00662 9.34657 7.18663 9.3799 7.31996L9.5399 8.00662C9.66657 8.54662 9.3799 8.75995 8.8999 8.47328L8.23323 8.07995C8.11323 8.00662 7.91323 8.00662 7.79323 8.07995L7.12657 8.47328C6.64657 8.75328 6.3599 8.54662 6.48657 8.00662L6.64657 7.31996C6.67323 7.19329 6.62657 7.00662 6.53323 6.91328L5.9799 6.35996C5.65323 6.03329 5.7599 5.70662 6.21323 5.62662L6.92657 5.50663C7.04657 5.48663 7.18657 5.37995 7.2399 5.27329L7.63323 4.48663C7.82657 4.05996 8.17323 4.05996 8.38657 4.48663Z" stroke="#1A1A1A" stroke-width="1.25" stroke-linecap="round" stroke-linejoin="round"/>
</svg>
